<svg width="27" height="26" viewBox="0 0 27 26" fill="none" xmlns="http://www.w3.org/2000/svg">
<path fill-rule="evenodd" clip-rule="evenodd" d="M10.1791 9.21125H14.9764V11.5237C15.6674 10.1937 17.4396 8.99875 20.1017 8.99875C25.2051 8.99875 26.4167 11.6462 26.4167 16.5037V25.5H21.25V17.61C21.25 14.8437 20.559 13.2837 18.7997 13.2837C16.3598 13.2837 15.3458 14.965 15.3458 17.6087V25.5H10.1791V9.21125ZM1.31959 25.2875H6.48626V8.99875H1.31959V25.2875ZM7.22638 3.6875C7.22658 4.10659 7.14069 4.52154 6.97372 4.90823C6.80675 5.29492 6.56202 5.64564 6.25376 5.94C5.62911 6.54078 4.7836 6.87707 3.90293 6.875C3.0238 6.87443 2.18024 6.539 1.55468 5.94125C1.24753 5.64589 1.00363 5.29478 0.836954 4.90804C0.670275 4.5213 0.584092 4.10653 0.583344 3.6875C0.583344 2.84125 0.932093 2.03125 1.55597 1.43375C2.18099 0.835198 3.0249 0.499626 3.90422 0.5C4.78513 0.5 5.62988 0.83625 6.25376 1.43375C6.87634 2.03125 7.22638 2.84125 7.22638 3.6875Z" fill="black"/>
</svg>
