<svg width="19" height="19" viewBox="0 0 19 19" fill="none" xmlns="http://www.w3.org/2000/svg">
<path fill-rule="evenodd" clip-rule="evenodd" d="M5.90975 0.843754C6.83838 0.801004 7.13446 0.791504 9.49996 0.791504C11.8655 0.791504 12.1615 0.801796 13.0894 0.843754C14.0172 0.885712 14.6505 1.03375 15.2047 1.2483C15.785 1.46759 16.3115 1.81038 16.7469 2.25371C17.1902 2.68834 17.5322 3.214 17.7507 3.79509C17.966 4.34925 18.1133 4.98259 18.156 5.90884C18.1988 6.83905 18.2083 7.13513 18.2083 9.49984C18.2083 11.8653 18.198 12.1614 18.156 13.09C18.1141 14.0163 17.966 14.6496 17.7507 15.2038C17.5322 15.785 17.1896 16.3115 16.7469 16.7468C16.3115 17.1901 15.785 17.5321 15.2047 17.7506C14.6505 17.9659 14.0172 18.1132 13.091 18.1559C12.1615 18.1987 11.8655 18.2082 9.49996 18.2082C7.13446 18.2082 6.83838 18.1979 5.90975 18.1559C4.9835 18.114 4.35017 17.9659 3.796 17.7506C3.21485 17.5321 2.68832 17.1895 2.25304 16.7468C1.81001 16.3119 1.46717 15.7856 1.24842 15.2046C1.03388 14.6504 0.886626 14.0171 0.843876 13.0908C0.801126 12.1606 0.791626 11.8645 0.791626 9.49984C0.791626 7.13434 0.801918 6.83825 0.843876 5.91042C0.885834 4.98259 1.03388 4.34925 1.24842 3.79509C1.46749 3.21407 1.8106 2.68779 2.25383 2.25292C2.68849 1.80998 3.2145 1.46715 3.79521 1.2483C4.34938 1.03375 4.98271 0.886504 5.90896 0.843754H5.90975ZM13.0189 2.41125C12.1006 2.3693 11.8251 2.36059 9.49996 2.36059C7.17483 2.36059 6.89933 2.3693 5.981 2.41125C5.13154 2.45005 4.67079 2.59175 4.36363 2.7113C3.9575 2.86963 3.66696 3.05725 3.36217 3.36205C3.07325 3.64313 2.85089 3.98531 2.71142 4.3635C2.59188 4.67067 2.45017 5.13142 2.41138 5.98088C2.36942 6.89921 2.36071 7.17471 2.36071 9.49984C2.36071 11.825 2.36942 12.1005 2.41138 13.0188C2.45017 13.8683 2.59188 14.329 2.71142 14.6362C2.85075 15.0138 3.07321 15.3566 3.36217 15.6376C3.64321 15.9266 3.986 16.149 4.36363 16.2884C4.67079 16.4079 5.13154 16.5496 5.981 16.5884C6.89933 16.6304 7.17404 16.6391 9.49996 16.6391C11.8259 16.6391 12.1006 16.6304 13.0189 16.5884C13.8684 16.5496 14.3291 16.4079 14.6363 16.2884C15.0424 16.13 15.333 15.9424 15.6378 15.6376C15.9267 15.3566 16.1492 15.0138 16.2885 14.6362C16.408 14.329 16.5498 13.8683 16.5885 13.0188C16.6305 12.1005 16.6392 11.825 16.6392 9.49984C16.6392 7.17471 16.6305 6.89921 16.5885 5.98088C16.5498 5.13142 16.408 4.67067 16.2885 4.3635C16.1302 3.95738 15.9425 3.66684 15.6378 3.36205C15.3567 3.07314 15.0145 2.8508 14.6363 2.7113C14.3291 2.59175 13.8684 2.45005 13.0189 2.41125ZM8.38767 12.1844C9.00886 12.443 9.70055 12.4779 10.3446 12.2831C10.9887 12.0884 11.5451 11.6761 11.919 11.1166C12.2928 10.5572 12.4608 9.88528 12.3943 9.21571C12.3278 8.54615 12.0309 7.92044 11.5543 7.44546C11.2505 7.14184 10.8832 6.90936 10.4787 6.76475C10.0743 6.62014 9.6428 6.567 9.21535 6.60916C8.7879 6.65132 8.37512 6.78773 8.00672 7.00857C7.63832 7.2294 7.32347 7.52918 7.08482 7.8863C6.84618 8.24343 6.68969 8.64902 6.62662 9.07389C6.56354 9.49876 6.59545 9.93232 6.72005 10.3434C6.84465 10.7544 7.05884 11.1327 7.3472 11.4511C7.63555 11.7694 7.9909 12.0199 8.38767 12.1844ZM6.33488 6.33475C6.75052 5.91911 7.24396 5.5894 7.78703 5.36446C8.3301 5.13951 8.91215 5.02373 9.49996 5.02373C10.0878 5.02373 10.6698 5.13951 11.2129 5.36446C11.756 5.5894 12.2494 5.91911 12.665 6.33475C13.0807 6.7504 13.4104 7.24384 13.6353 7.78691C13.8603 8.32997 13.9761 8.91203 13.9761 9.49984C13.9761 10.0876 13.8603 10.6697 13.6353 11.2128C13.4104 11.7558 13.0807 12.2493 12.665 12.6649C11.8256 13.5044 10.6871 13.9759 9.49996 13.9759C8.31282 13.9759 7.17431 13.5044 6.33488 12.6649C5.49544 11.8255 5.02386 10.687 5.02386 9.49984C5.02386 8.3127 5.49544 7.17419 6.33488 6.33475ZM14.9688 5.69034C15.0718 5.59318 15.1543 5.47634 15.2113 5.34673C15.2683 5.21713 15.2988 5.0774 15.3008 4.93582C15.3029 4.79424 15.2765 4.65369 15.2233 4.52248C15.1701 4.39127 15.0911 4.27208 14.9909 4.17195C14.8908 4.07183 14.7716 3.99281 14.6404 3.93958C14.5092 3.88635 14.3686 3.85999 14.2271 3.86205C14.0855 3.86411 13.9457 3.89456 13.8161 3.9516C13.6865 4.00863 13.5697 4.09109 13.4725 4.19409C13.2836 4.3944 13.1801 4.66048 13.1841 4.93582C13.1882 5.21117 13.2993 5.47412 13.494 5.66884C13.6888 5.86356 13.9517 5.97473 14.2271 5.97874C14.5024 5.98276 14.7685 5.8793 14.9688 5.69034Z" fill="#F8F8F8"/>
</svg>
