<svg width="18" height="19" viewBox="0 0 18 19" fill="none" xmlns="http://www.w3.org/2000/svg">
<path d="M12.75 2.77063C12.75 2.66565 12.7105 2.56497 12.6402 2.49074C12.5698 2.4165 12.4745 2.3748 12.375 2.3748H10.5C9.55584 2.32515 8.63145 2.67198 7.92879 3.33951C7.22613 4.00703 6.80234 4.94098 6.75 5.9373V8.0748H4.875C4.77554 8.0748 4.68016 8.1165 4.60984 8.19073C4.53951 8.26497 4.5 8.36565 4.5 8.47063V10.529C4.5 10.6339 4.53951 10.7346 4.60984 10.8089C4.68016 10.8831 4.77554 10.9248 4.875 10.9248H6.75V16.229C6.75 16.3339 6.78951 16.4346 6.85983 16.5089C6.93016 16.5831 7.02554 16.6248 7.125 16.6248H9.375C9.47446 16.6248 9.56984 16.5831 9.64017 16.5089C9.71049 16.4346 9.75 16.3339 9.75 16.229V10.9248H11.715C11.7984 10.9261 11.8798 10.8979 11.9464 10.8449C12.0129 10.7918 12.0608 10.7169 12.0825 10.6319L12.6225 8.57355C12.6374 8.51506 12.6394 8.45374 12.6284 8.39431C12.6173 8.33487 12.5935 8.27891 12.5587 8.23073C12.5239 8.18255 12.4791 8.14344 12.4278 8.11641C12.3764 8.08937 12.3199 8.07514 12.2625 8.0748H9.75V5.9373C9.76866 5.74134 9.85584 5.55976 9.99452 5.42801C10.1332 5.29627 10.3134 5.22381 10.5 5.2248H12.375C12.4745 5.2248 12.5698 5.18309 12.6402 5.10886C12.7105 5.03463 12.75 4.93395 12.75 4.82896V2.77063Z" fill="#F8F8F8"/>
</svg>
