<svg width="23" height="23" viewBox="0 0 23 23" fill="none" xmlns="http://www.w3.org/2000/svg">
<path d="M14.6122 15.4388L16.2222 13.8288C16.4391 13.6146 16.7134 13.468 17.012 13.4068C17.3106 13.3455 17.6205 13.3723 17.9041 13.4838L19.8663 14.2672C20.1529 14.3836 20.3987 14.5822 20.5727 14.838C20.7466 15.0938 20.841 15.3954 20.8438 15.7047V19.2985C20.8421 19.5089 20.7979 19.7168 20.7138 19.9097C20.6296 20.1026 20.5073 20.2765 20.3542 20.4208C20.2011 20.5652 20.0204 20.6771 19.8229 20.7498C19.6254 20.8225 19.4152 20.8545 19.2051 20.8438C5.45536 19.9885 2.68099 8.34472 2.1563 3.88847C2.13194 3.66963 2.1542 3.44812 2.2216 3.23851C2.289 3.02889 2.40002 2.83592 2.54735 2.6723C2.69468 2.50867 2.87499 2.37809 3.07641 2.28915C3.27784 2.20021 3.49581 2.15493 3.71599 2.15628H7.18755C7.49734 2.1572 7.79977 2.25077 8.05594 2.42497C8.31211 2.59917 8.51032 2.84602 8.62505 3.13378L9.40849 5.09597C9.52367 5.37849 9.55306 5.68868 9.49298 5.9878C9.4329 6.28692 9.28601 6.56171 9.07068 6.77784L7.46068 8.38784C7.46068 8.38784 8.38786 14.6625 14.6122 15.4388Z" fill="#F8F8F8"/>
</svg>
