<svg width="22" height="22" viewBox="0 0 22 22" fill="none" xmlns="http://www.w3.org/2000/svg">
<path fill-rule="evenodd" clip-rule="evenodd" d="M8.64329 8.22175H12.0478V9.91758C12.5382 8.94225 13.7959 8.06591 15.6851 8.06591C19.3069 8.06591 20.1667 10.0074 20.1667 13.5696V20.1668H16.5V14.3808C16.5 12.3522 16.0096 11.2082 14.7611 11.2082C13.0295 11.2082 12.31 12.4412 12.31 14.3799V20.1668H8.64329V8.22175ZM2.35587 20.011H6.02254V8.06591H2.35587V20.011ZM6.54779 4.171C6.54793 4.47833 6.48698 4.78263 6.36848 5.0662C6.24998 5.34977 6.0763 5.60697 5.85754 5.82283C5.41424 6.2634 4.8142 6.51001 4.18921 6.5085C3.56531 6.50808 2.96666 6.2621 2.52271 5.82375C2.30473 5.60715 2.13164 5.34967 2.01336 5.06606C1.89507 4.78245 1.8339 4.47829 1.83337 4.171C1.83337 3.55041 2.08087 2.95641 2.52362 2.51825C2.96719 2.07931 3.56609 1.83322 4.19012 1.8335C4.81529 1.8335 5.41479 2.08008 5.85754 2.51825C6.29937 2.95641 6.54779 3.55041 6.54779 4.171Z" fill="#F8F8F8"/>
</svg>
