<svg width="24" height="24" viewBox="0 0 24 24" fill="none" xmlns="http://www.w3.org/2000/svg">
<path d="M16.6079 14.1721C16.6079 15.0121 16.8469 15.3471 17.4719 15.3471C18.865 15.3471 19.7519 13.5721 19.7519 10.6201C19.7519 6.10813 16.4639 3.94813 12.3589 3.94813C8.13595 3.94813 4.29495 6.78013 4.29495 12.1321C4.29495 17.2441 7.65495 20.0281 12.8149 20.0281C14.5669 20.0281 15.7429 19.8361 17.5419 19.2361L17.9279 20.8431C16.1519 21.4201 14.254 21.5871 12.7909 21.5871C6.02295 21.5871 2.39795 17.8671 2.39795 12.1311C2.39795 6.34713 6.59895 2.41113 12.3829 2.41113C18.4069 2.41113 21.5979 6.01113 21.5979 10.4271C21.5979 14.1711 20.423 17.0271 16.7269 17.0271C15.0459 17.0271 13.9429 16.3551 13.7989 14.8661C13.3669 16.5221 12.2149 17.0271 10.6539 17.0271C8.56595 17.0271 6.81395 15.4181 6.81395 12.1791C6.81395 8.91513 8.35095 6.89913 11.1109 6.89913C12.5749 6.89913 13.4869 7.47513 13.8929 8.38713L14.5899 7.11513H16.6059V14.1721H16.6079ZM13.6569 11.0041C13.6569 9.68513 12.6719 9.13213 11.8559 9.13213C10.9679 9.13213 9.98495 9.85113 9.98495 11.9641C9.98495 13.6441 10.7289 14.5801 11.8559 14.5801C12.6479 14.5801 13.6569 14.0761 13.6569 12.6841V11.0041Z" fill="#F8F8F8"/>
</svg>
