<svg width="91" height="26" viewBox="0 0 91 26" fill="none" xmlns="http://www.w3.org/2000/svg">
<path d="M6.29492 12.0361C7.86719 10.5225 9.56641 9.76562 11.3926 9.76562C11.9785 9.76562 12.4961 9.96094 12.9453 10.3516C13.3945 10.7422 13.6191 11.2451 13.6191 11.8604C13.6191 12.4658 13.4287 12.959 13.0479 13.3398C12.667 13.7207 12.2031 13.9111 11.6562 13.9111C11.1094 13.9111 10.6455 13.7256 10.2646 13.3545C9.89355 12.9736 9.70801 12.5049 9.70801 11.9482C9.70801 11.7236 9.74707 11.4941 9.8252 11.2598C8.40918 11.6895 7.23242 12.417 6.29492 13.4424V23.8721H9.50293V25H0.274414V23.8721H2.45703V11.1572H0.259766V10.0146H6.29492V12.0361ZM27.0078 23.5645C25.709 24.7168 24.3027 25.293 22.7891 25.293C21.2852 25.293 20.0107 24.9902 18.9658 24.3848C17.5205 23.5352 16.7979 22.1143 16.7979 20.1221V11.1572H14.7178V10.0146H20.6064V20.7959C20.6064 22.8564 21.5586 23.8867 23.4629 23.8867C24.7812 23.8867 25.9629 23.2812 27.0078 22.0703V11.1572H24.4736V10.0146H30.7871V23.8574H32.6768V25H27.0078V23.5645ZM34.8887 23.8574H37.1738V1.48926H34.7861V0.332031H41.0557V23.8574H43.5166V25H34.8887V23.8574ZM50.665 6.44043C50.2744 6.83105 49.8008 7.02637 49.2441 7.02637C48.6875 7.02637 48.209 6.83594 47.8086 6.45508C47.4082 6.06445 47.208 5.6543 47.208 5.22461C47.208 4.50195 47.4033 3.94531 47.7939 3.55469C48.1846 3.16406 48.6631 2.96875 49.2295 2.96875C50.1279 2.96875 50.748 3.37891 51.0898 4.19922C51.1973 4.44336 51.251 4.70703 51.251 4.99023C51.251 5.56641 51.0557 6.0498 50.665 6.44043ZM44.9229 23.8574H47.2959V11.1572H45.1279V10.0146H51.1777V23.8574H53.5508V25H44.9229V23.8574ZM54.9131 23.8574H57.1543V1.47461H54.9131V0.332031H60.9629V17.4414L68.375 11.1426H65.6504V10.0146H72.1836V11.1426H70.2646L65.5332 15.0977L71.627 23.8574H73.6338V25H65.2109V23.8574H67.2764L62.8525 17.3389L60.9629 18.9209V23.8574H63.1309V25H54.9131V23.8574ZM75.1426 17.5C75.1426 15.1953 75.875 13.3301 77.3398 11.9043C78.8047 10.4785 80.6455 9.76562 82.8623 9.76562C85.0889 9.76562 86.9199 10.4785 88.3555 11.9043C89.8008 13.3203 90.5234 15.1855 90.5234 17.5C90.5234 19.8047 89.8057 21.6797 88.3701 23.125C86.9443 24.5703 85.1133 25.293 82.877 25.293C80.6406 25.293 78.79 24.5703 77.3252 23.125C75.8701 21.6797 75.1426 19.8047 75.1426 17.5ZM82.833 24.0771C84.8057 24.0771 85.9629 22.7344 86.3047 20.0488C86.4023 19.248 86.4512 18.3887 86.4512 17.4707C86.4512 15.4102 86.2168 13.8672 85.748 12.8418C85.1719 11.6113 84.2002 10.9961 82.833 10.9961C80.8604 10.9961 79.7031 12.2949 79.3613 14.8926C79.2637 15.6836 79.2148 16.543 79.2148 17.4707C79.2148 19.541 79.4492 21.1035 79.918 22.1582C80.5039 23.4375 81.4756 24.0771 82.833 24.0771Z" fill="black"/>
</svg>
