<svg width="183" height="72" viewBox="0 0 183 72" fill="none" xmlns="http://www.w3.org/2000/svg">
<path d="M62.3058 9.11526C57.3734 12.7729 53.2701 15.8257 53.1987 15.9121C53.1129 16.0129 56.1581 18.3169 62.1342 22.6801C67.1238 26.3233 71.2699 29.3185 71.3414 29.3473C71.4415 29.3761 97.6476 10.1809 100.736 7.83366L101.165 7.48806L106.597 11.5345C109.571 13.7665 112.13 15.6817 112.259 15.8257C112.488 16.0417 112.159 16.3153 106.984 20.0881C103.953 22.3057 101.393 24.1633 101.308 24.2065C101.222 24.2641 99.349 22.9825 97.1473 21.3697C94.9455 19.7425 93.0441 18.4465 92.9297 18.4753C92.6294 18.5473 89.6414 20.7217 89.6414 20.8657C89.6414 21.0673 101.107 29.3905 101.279 29.3329C101.551 29.2177 119.45 16.1281 119.479 16.0129C119.493 15.9265 101.522 2.59206 101.236 2.47686C101.179 2.46246 94.4451 7.35846 86.2816 13.3777L71.4129 24.3073L70.6837 23.7889C63.5496 18.6625 60.0898 16.0417 60.2327 15.8833C60.3328 15.7969 62.8776 13.8673 65.9086 11.6065L71.4129 7.50246L71.8418 7.83366C72.0705 8.00646 73.9291 9.40326 75.945 10.9297L79.6193 13.6945L81.2348 12.5137C82.1212 11.8657 82.9076 11.2897 82.9648 11.2321C83.0791 11.1313 71.8704 2.66406 71.4701 2.53446C71.3557 2.50566 67.2382 5.45766 62.3058 9.11526Z" fill="black"/>
<path d="M170.848 41.2848C169.418 42.048 168.732 43.6752 169.189 45.2304C169.632 46.8 170.848 47.7072 172.477 47.6928C174.436 47.6784 175.852 46.2096 175.852 44.1936C175.852 43.4736 175.337 42.2784 174.836 41.8032C173.793 40.8384 172.106 40.6224 170.848 41.2848ZM173.707 41.688C174.979 42.3504 175.508 44.064 174.808 45.2736C173.764 47.1312 171.491 47.3184 170.29 45.648C169.504 44.5536 169.59 43.3296 170.533 42.3072C171.405 41.3856 172.635 41.1408 173.707 41.688Z" fill="black"/>
<path d="M171.277 44.28V46.224H171.634C171.963 46.224 171.991 46.1808 171.991 45.504C171.991 44.9568 172.049 44.784 172.206 44.784C172.32 44.784 172.578 45.1008 172.778 45.504C173.064 46.08 173.207 46.224 173.507 46.224C173.821 46.224 173.85 46.1952 173.693 45.8928C173.593 45.72 173.407 45.4032 173.264 45.1872C172.992 44.8128 172.992 44.8128 173.421 44.3808C173.964 43.8192 173.993 43.1856 173.493 42.696C173.192 42.3792 173.021 42.336 172.206 42.336H171.277V44.28Z" fill="black"/>
<path d="M110.3 41.7744C106.126 42.336 102.251 44.2512 99.6206 47.0592C98.4197 48.3408 97.6048 49.7376 97.0329 51.4368C96.604 52.7328 96.5897 52.8624 96.5754 55.296C96.5754 57.9312 96.6612 58.4928 97.3617 60.3648C97.7763 61.488 98.8486 63.1152 99.878 64.152C102.223 66.5424 105.125 68.0112 109.014 68.7888C110.972 69.1776 115.647 69.1344 117.592 68.7168C120.437 68.0976 122.453 67.2336 124.326 65.8368C127.042 63.792 128.515 61.7184 129.33 58.752C129.701 57.384 129.701 53.4672 129.33 52.056C128.586 49.2768 127.199 47.304 124.597 45.3744C122.052 43.4736 120.251 42.624 117.577 42.048C115.948 41.7024 111.945 41.544 110.3 41.7744ZM115.233 45.792C117.821 46.1088 119.379 46.7424 121.366 48.24C123.282 49.7088 124.297 51.1632 124.826 53.2512C125.527 56.0304 124.74 59.328 122.853 61.4736C121.523 63 119.15 64.2096 116.505 64.728C113.789 65.2464 109.557 64.9152 107.355 64.008C103.109 62.28 100.721 58.32 101.365 54.0576C101.822 51.0048 103.695 48.6432 106.869 47.088C109.414 45.8496 112.188 45.4176 115.233 45.792Z" fill="black"/>
<path d="M17.3707 41.9904C13.5105 42.4512 11.895 43.0272 10.451 44.4816C8.89265 46.0512 8.2064 48.1392 8.54953 50.328C8.76398 51.6816 9.22148 52.6176 10.0793 53.4096C11.7091 54.9216 14.5256 55.5552 22.732 56.232C27.7645 56.664 28.9369 56.8368 30.1664 57.3984C32.6112 58.4928 33.0115 61.1712 30.9813 62.8416C29.6088 63.9792 27.5215 64.6128 24.6049 64.7856C19.9155 65.0592 15.8695 64.1952 11.509 61.9776L9.79335 61.1136L8.60671 62.6688C7.94906 63.5328 7.43437 64.3248 7.47726 64.4256C7.67742 64.9584 10.7512 66.6 12.9101 67.32C15.8266 68.2992 18.6145 68.688 22.6462 68.688C27.8646 68.688 31.2387 67.8816 33.8407 66.0096C36.0424 64.4256 37.1004 61.6608 36.6143 58.824C35.9995 55.296 32.9686 53.3808 26.8781 52.6464C25.8916 52.5312 23.6184 52.3296 21.8027 52.2C15.5836 51.7824 13.8394 51.3216 13.1531 49.968C12.1952 48.0672 13.6106 46.5552 17.0133 45.8208C18.7575 45.4608 22.8321 45.504 24.8194 45.9072C26.7352 46.296 28.9798 47.0304 30.9384 47.8944L32.3824 48.5424L33.6977 47.1312C34.4269 46.3536 35.013 45.6912 35.0273 45.648C35.0273 45.504 32.6255 44.208 31.3816 43.6896C29.7947 43.0416 27.4071 42.4224 25.3198 42.1344C23.8615 41.9184 18.7146 41.8464 17.3707 41.9904Z" fill="black"/>
<path d="M42.4617 55.368V68.4H44.6777H46.8938V55.368V42.336H44.6777H42.4617V55.368Z" fill="black"/>
<path d="M54.757 55.368V68.4H56.973H59.1891L59.2176 57.816L59.2605 47.232L65.8085 55.584C69.4256 60.1776 72.4137 63.9648 72.4708 64.008C72.528 64.0368 75.5304 60.3072 79.1475 55.6992L85.7098 47.3328L85.7526 57.8736L85.7812 68.4H87.9973H90.2133V55.368V42.336L87.4683 42.3648L84.7233 42.408L78.7043 50.0256C75.3874 54.2304 72.6138 57.672 72.5423 57.7008C72.4708 57.7152 69.683 54.2736 66.3375 50.04L60.2756 42.336H57.5163H54.757V55.368Z" fill="black"/>
<path d="M136.106 55.368V68.4H138.322H140.538L140.567 57.9312L140.61 47.448L150.26 57.9168L159.911 68.3856L162.67 68.4H165.415V55.368V42.336H163.199H160.983L160.954 52.8048L160.911 63.2592L151.189 52.8048L141.468 42.3648L138.794 42.3504L136.106 42.336V55.368Z" fill="black"/>
</svg>
