<svg width="24" height="17" viewBox="0 0 24 17" fill="none" xmlns="http://www.w3.org/2000/svg">
<path d="M4.86328 8.35742C5.91146 7.34831 7.04427 6.84375 8.26172 6.84375C8.65234 6.84375 8.9974 6.97396 9.29688 7.23438C9.59635 7.49479 9.74609 7.83008 9.74609 8.24023C9.74609 8.64388 9.61914 8.97266 9.36523 9.22656C9.11133 9.48047 8.80208 9.60742 8.4375 9.60742C8.07292 9.60742 7.76367 9.48372 7.50977 9.23633C7.26237 8.98242 7.13867 8.66992 7.13867 8.29883C7.13867 8.14909 7.16471 7.99609 7.2168 7.83984C6.27279 8.1263 5.48828 8.61133 4.86328 9.29492V16.248H7.00195V17H0.849609V16.248H2.30469V7.77148H0.839844V7.00977H4.86328V8.35742ZM10.5762 16.2383H12.0703V1.31641H10.5762V0.554688H14.6094V11.9609L19.5508 7.76172H17.7344V7.00977H22.0898V7.76172H20.8105L17.6562 10.3984L21.7188 16.2383H23.0566V17H17.4414V16.2383H18.8184L15.8691 11.8926L14.6094 12.9473V16.2383H16.0547V17H10.5762V16.2383Z" fill="white"/>
</svg>
